<?xml version="1.0" encoding="utf-8"?>
<!-- Generator: Adobe Illustrator 22.1.0, SVG Export Plug-In . SVG Version: 6.00 Build 0)  -->
<svg version="1.1" id="Layer_1" xmlns="http://www.w3.org/2000/svg" xmlns:xlink="http://www.w3.org/1999/xlink" x="0px" y="0px"
	 viewBox="0 0 102.1 77.5" style="enable-background:new 0 0 102.1 77.5;" xml:space="preserve">
<title>PaperHatIcon</title>
<path d="M93.7,76.6l-42.4-9c-0.2,0-0.4,0-0.5,0l-42.4,9c-0.7,0.1-1.3-0.3-1.5-0.9L3,60.3c-0.2-0.7,0.3-1.4,0.9-1.5c0,0,0.1,0,0.1,0
	l46.7-9c0.2,0,0.3,0,0.5,0l46.8,9c0.7,0.2,1.1,0.9,0.9,1.6c0,0,0,0,0,0l-3.8,15.4C95.1,76.3,94.4,76.8,93.7,76.6z"/>
<path d="M10.5,52.1l37.6-5.4c0.7-0.1,1.1-0.7,1.1-1.3l-2-42.6c-0.1-0.7-0.7-1.2-1.4-1.2c-0.3,0-0.7,0.2-0.9,0.5L9.3,50
	c-0.4,0.6-0.3,1.4,0.3,1.8C9.9,52,10.2,52.1,10.5,52.1z"/>
<path d="M91.5,52.1l-37.6-5.4c-0.7-0.1-1.1-0.7-1.1-1.3l2-42.6c0-0.7,0.6-1.3,1.3-1.2c0.4,0,0.7,0.2,1,0.5L92.8,50
	c0.4,0.6,0.3,1.4-0.2,1.8C92.2,52,91.9,52.1,91.5,52.1z"/>
</svg>
